<svg xmlns="http://www.w3.org/2000/svg" viewBox="0 0 275.42 75.41"><defs><style>.cls-1,.cls-2{fill:none;stroke:#afdcde;stroke-linecap:round;stroke-linejoin:round}.cls-1{stroke-width:1.17px}.cls-2{stroke-width:1.71px}</style></defs><title>logo_1</title><g id="レイヤー_2" data-name="レイヤー 2"><g id="文字情報"><path class="cls-1" d="M14.1 61.46c2.63-1.8 7-2.36 11 1.08 0 0-.16-10.17 8.82-6.15A15.82 15.82 0 0 1 40.55 63m-18.76-8.55c-6.14.87-10 5.51-12 8.18m14.8-21.43c6.26-1.64 9.1.64 9.75 3.3.79 3.23-1.74 6.86-7.21 7.55 0 0-6.78.83-7.25-2.4-.14-1 .88-2.63 3.27-1.84a4.8 4.8 0 0 1 2.36 1.81m1.52-14.13l-12.56 11.8m6-13.95c4.51.92 9-1.4 9-1.4"/><path class="cls-2" d="M25.2 6.94c-4.79 0-8.68-1.36-8.68-3s3.89-3 8.68-3 8.68 1.37 8.68 3.05S30 6.94 25.2 6.94zm6.98 2.56v11c0 3.8.52 5.57 3.56 7.39 8.49 5.07 13.84 12.52 13.84 22.33a24.37 24.37 0 0 1-48.73 0c0-9.81 5.35-17.26 13.85-22.33 3-1.82 3.56-3.59 3.56-7.39v-11m87.38 51.87h-16A5.33 5.33 0 0 1 84.32 56V34.71a5.32 5.32 0 0 1 5.33-5.33h16m100.67 31.99h-10.66a5.33 5.33 0 0 1-5.33-5.37V29.38m52.35 31.99l-11.47-31a2 2 0 0 0-3.71 0l-11.5 31m-57.04 0V29.38M89.65 45.37h10.66m123.71 5.33h10.67m31.88 10.67h-8a5.34 5.34 0 0 1-5.33-5.37V34.71a5.33 5.33 0 0 1 5.33-5.33h8a8 8 0 1 1 0 16h-8m8 15.99a8 8 0 0 0 6-13.33M132.3 61.37h-8A5.34 5.34 0 0 1 119 56V34.71a5.33 5.33 0 0 1 5.33-5.33h8a8 8 0 1 1 0 16h-8m7.97 15.99a8 8 0 0 0 6-13.33"/></g></g></svg>